<svg width="36" height="36" viewBox="0 0 36 36" fill="none" xmlns="http://www.w3.org/2000/svg">
<path d="M20.7301 33H15.2701C14.5653 33 13.9555 32.5095 13.8046 31.821L13.1941 28.995C12.3797 28.6382 11.6075 28.1919 10.8916 27.6645L8.13612 28.542C7.46412 28.7563 6.7336 28.4735 6.38112 27.8625L3.64512 23.136C3.2965 22.5248 3.41661 21.7537 3.93462 21.2775L6.07212 19.3275C5.97492 18.4442 5.97492 17.5528 6.07212 16.6695L3.93462 14.724C3.41585 14.2476 3.29569 13.4756 3.64512 12.864L6.37512 8.1345C6.7276 7.52355 7.45812 7.2407 8.13012 7.455L10.8856 8.3325C11.2517 8.06123 11.6328 7.81084 12.0271 7.5825C12.4056 7.36904 12.7952 7.17577 13.1941 7.0035L13.8061 4.1805C13.9562 3.49195 14.5654 3.00074 15.2701 3H20.7301C21.4348 3.00074 22.044 3.49195 22.1941 4.1805L22.8121 7.005C23.2333 7.19027 23.6435 7.39962 24.0406 7.632C24.411 7.84622 24.7691 8.08109 25.1131 8.3355L27.8701 7.458C28.5417 7.2445 29.2713 7.52724 29.6236 8.1375L32.3536 12.867C32.7022 13.4782 32.5821 14.2493 32.0641 14.7255L29.9266 16.6755C30.0238 17.5588 30.0238 18.4502 29.9266 19.3335L32.0641 21.2835C32.5821 21.7597 32.7022 22.5308 32.3536 23.142L29.6236 27.8715C29.2713 28.4818 28.5417 28.7645 27.8701 28.551L25.1131 27.6735C24.7643 27.9304 24.4017 28.1683 24.0271 28.386C23.6339 28.6139 23.2282 28.8197 22.8121 29.0025L22.1941 31.821C22.0434 32.509 21.4344 32.9994 20.7301 33ZM11.4301 24.3435L12.6601 25.2435C12.9374 25.4477 13.2264 25.6356 13.5256 25.806C13.8072 25.9691 14.0971 26.1173 14.3941 26.25L15.7936 26.8635L16.4791 30H19.5241L20.2096 26.862L21.6091 26.2485C22.2201 25.9791 22.8 25.6441 23.3386 25.2495L24.5701 24.3495L27.6316 25.3245L29.1541 22.6875L26.7796 20.523L26.9476 19.005C27.0214 18.341 27.0214 17.671 26.9476 17.007L26.7796 15.489L29.1556 13.32L27.6316 10.6815L24.5701 11.6565L23.3386 10.7565C22.7998 10.3601 22.22 10.0226 21.6091 9.75L20.2096 9.1365L19.5241 6H16.4791L15.7906 9.138L14.3941 9.75C14.0968 9.88057 13.8069 10.0273 13.5256 10.1895C13.2282 10.3595 12.9408 10.5463 12.6646 10.749L11.4331 11.649L8.37312 10.674L6.84762 13.32L9.22212 15.4815L9.05412 17.001C8.98033 17.665 8.98033 18.335 9.05412 18.999L9.22212 20.517L6.84762 22.6815L8.37012 25.3185L11.4301 24.3435ZM17.9941 24C14.6804 24 11.9941 21.3137 11.9941 18C11.9941 14.6863 14.6804 12 17.9941 12C21.3078 12 23.9941 14.6863 23.9941 18C23.99 21.312 21.3061 23.9959 17.9941 24ZM17.9941 15C16.3552 15.0017 15.021 16.3183 14.9975 17.957C14.974 19.5958 16.27 20.9501 17.9082 20.9987C19.5463 21.0473 20.9204 19.7722 20.9941 18.135V18.735V18C20.9941 16.3431 19.651 15 17.9941 15Z" fill="white"/>
</svg>
