<svg width="25" height="25" viewBox="0 0 25 25" fill="none" xmlns="http://www.w3.org/2000/svg">
<path d="M12.5271 2.08301C7.43011 2.08235 3.0852 5.77883 2.26914 10.81C1.45308 15.8412 4.40685 20.7215 9.24268 22.332C9.76352 22.4257 9.94998 22.1059 9.94998 21.8309C9.94998 21.5841 9.94164 20.9299 9.93852 20.0601C7.04789 20.6851 6.43748 18.6663 6.43748 18.6663C6.24718 18.0382 5.83808 17.499 5.28435 17.1466C4.34685 16.5018 5.35623 16.5163 5.35623 16.5163C6.0236 16.6078 6.61097 17.0033 6.94685 17.5872C7.23116 18.1041 7.71014 18.4861 8.27738 18.6482C8.84461 18.8104 9.45312 18.7393 9.96768 18.4507C10.016 17.9236 10.2505 17.431 10.6291 17.0611C8.32289 16.7997 5.89789 15.908 5.89789 11.9257C5.88509 10.8957 6.26758 9.89998 6.96664 9.14343C6.65034 8.24687 6.68759 7.26348 7.07081 6.39343C7.07081 6.39343 7.94268 6.11322 9.92706 7.45697C11.629 6.99031 13.4251 6.99031 15.1271 7.45697C17.1125 6.11218 17.9833 6.39343 17.9833 6.39343C18.3683 7.26307 18.4056 8.24715 18.0875 9.14343C18.7891 9.89991 19.1713 10.8983 19.1541 11.9299C19.1541 15.9226 16.7271 16.7997 14.4125 17.057C14.9118 17.5674 15.1678 18.2677 15.1156 18.9799C15.1156 20.3695 15.1031 21.4903 15.1031 21.8309C15.1031 22.1091 15.2885 22.432 15.8187 22.3299C20.6525 20.7167 23.6031 15.8361 22.7854 10.8063C21.9677 5.7764 17.623 2.08184 12.5271 2.08301Z" fill="#F2F2F2"/>
</svg>
