<svg width="25" height="25" viewBox="0 0 25 25" fill="none" xmlns="http://www.w3.org/2000/svg">
<path d="M12.5104 22.9166C8.30069 22.922 4.50341 20.3877 2.89334 16.4981C1.28327 12.6084 2.17841 8.13172 5.16039 5.1603C7.78452 2.52669 11.6155 1.49524 15.2072 2.45532C18.7989 3.4154 21.6042 6.22077 22.5643 9.81246C23.5244 13.4042 22.493 17.2351 19.8594 19.8593C17.9163 21.8189 15.27 22.9198 12.5104 22.9166ZM10.9666 15.9082C12.8809 15.8683 14.7678 16.3679 16.4114 17.3499C16.5128 17.4179 16.6321 17.4541 16.7541 17.454C16.9766 17.4485 17.1811 17.3309 17.2979 17.1415C17.3888 16.9661 17.4046 16.7612 17.3416 16.5738C17.2884 16.4314 17.1776 16.3179 17.0364 16.2613C15.1858 15.1605 13.0632 14.6014 10.9104 14.6478C9.57469 14.658 8.24415 14.8149 6.94268 15.1155C6.60146 15.2064 6.39399 15.5518 6.47393 15.8957C6.5545 16.1733 6.80101 16.3702 7.08956 16.3874C7.14493 16.3872 7.2 16.3791 7.2531 16.3634C8.47012 16.0738 9.7157 15.9211 10.9666 15.9082ZM10.7687 12.8082C13.1107 12.7806 15.4177 13.3779 17.4521 14.5384C17.568 14.6227 17.7077 14.6679 17.851 14.6676C18.1317 14.6567 18.3903 14.5123 18.5468 14.279C18.6692 14.1006 18.7072 13.8775 18.651 13.6686C18.6129 13.4875 18.4992 13.3313 18.3385 13.2395C16.0382 11.9111 13.4239 11.2237 10.7677 11.2488C9.36743 11.2403 7.97348 11.4368 6.63018 11.8322C6.21743 11.968 5.98694 12.4069 6.10935 12.8238C6.21153 13.1608 6.52953 13.3852 6.88122 13.3686C6.95599 13.3694 7.03054 13.3606 7.1031 13.3426C8.29037 12.9777 9.52669 12.7975 10.7687 12.8082ZM10.9656 9.59155C13.6364 9.51451 16.2823 10.1242 18.65 11.3624C18.8096 11.4496 18.9889 11.4944 19.1708 11.4926C19.4938 11.4993 19.8016 11.3558 20.0041 11.104C20.1301 10.8736 20.1629 10.6037 20.0958 10.3499C20.0331 10.0966 19.8688 9.88035 19.6416 9.75196C16.9716 8.33284 13.98 7.6281 10.9573 7.70613C9.28354 7.68891 7.61553 7.90416 6.00102 8.34571C5.54751 8.48597 5.26634 8.93856 5.34153 9.40726C5.41672 9.87597 5.82535 10.2179 6.29997 10.2093C6.39238 10.2093 6.48431 10.196 6.57289 10.1697C8.0013 9.76468 9.48103 9.56958 10.9656 9.59051V9.59155Z" fill="#F2F2F2"/>
</svg>
