<svg width="25" height="25" viewBox="0 0 25 25" fill="none" xmlns="http://www.w3.org/2000/svg">
<path d="M12.5063 19.8038H12.4854C12.4208 19.8038 5.95939 19.7913 4.32918 19.3486C3.43275 19.1071 2.73267 18.4067 2.49168 17.5101C2.19853 15.8563 2.05697 14.1792 2.06876 12.4997C2.06119 10.8174 2.20658 9.13792 2.50314 7.48197C2.75075 6.58458 3.44775 5.88087 4.34272 5.62467C5.92814 5.20801 12.2115 5.20801 12.4781 5.20801H12.5C12.5656 5.20801 19.0438 5.22051 20.6573 5.66322C21.5519 5.90593 22.2505 6.60498 22.4927 7.49967C22.7952 9.15961 22.9372 10.8448 22.9167 12.532C22.924 14.2122 22.7782 15.8896 22.4813 17.5434C22.2372 18.4389 21.5366 19.1378 20.6406 19.3799C19.0573 19.7997 12.7729 19.8038 12.5063 19.8038ZM10.4229 9.37988L10.4177 15.6299L15.8469 12.5049L10.4229 9.37988Z" fill="#F2F2F2"/>
</svg>
